<?xml version="1.0" encoding="utf-8"?>
<!-- Generator: Adobe Illustrator 15.1.0, SVG Export Plug-In . SVG Version: 6.00 Build 0)  -->
<!DOCTYPE svg PUBLIC "-//W3C//DTD SVG 1.1//EN" "http://www.w3.org/Graphics/SVG/1.1/DTD/svg11.dtd">
<svg version="1.1" id="Layer_1" xmlns="http://www.w3.org/2000/svg" xmlns:xlink="http://www.w3.org/1999/xlink" x="0px" y="0px"
	 width="1224px" height="792px" viewBox="0 0 1224 792" enable-background="new 0 0 1224 792" xml:space="preserve">
<path fill="#FF2B06" d="M11.607,152.028L4.04,141.123h7.211l4.05,6.009l4.006-6.009h6.988l-7.567,10.771l8.501,12.24h-7.21
	l-4.807-7.255l-4.807,7.255H3.328L11.607,152.028z"/>
<path fill="#FFFFFF" d="M57.183,150.514H34.705v-4.763h22.478V150.514z M57.183,160.04H34.705v-4.763h22.478V160.04z"/>
<path fill="#FFFFFF" d="M74.406,137.562h-6.32v-5.208h6.32V137.562z M68.085,141.123h6.32v23.012h-6.32V141.123z"/>
<path fill="#FFFFFF" d="M78.5,141.123h6.009v3.205h0.133c1.603-2.582,4.362-3.828,7.033-3.828c6.721,0,8.412,3.783,8.412,9.48
	v14.154h-6.32v-12.997c0-3.783-1.113-5.652-4.05-5.652c-3.427,0-4.896,1.914-4.896,6.587v12.062H78.5V141.123z"/>
<path fill="#FFFFFF" d="M120.426,161.197h-0.089c-1.469,2.492-4.05,3.561-6.988,3.561c-6.943,0-10.326-5.964-10.326-12.329
	c0-6.187,3.427-11.929,10.193-11.929c2.715,0,5.386,1.157,6.854,3.427h-0.044h0.089v-11.573h6.32v31.78h-6.009V161.197z
	 M114.907,145.262c-4.14,0-5.564,3.561-5.564,7.344c0,3.605,1.647,7.388,5.564,7.388c4.184,0,5.43-3.649,5.43-7.433
	C120.337,148.823,119.002,145.262,114.907,145.262z"/>
<path fill="#FFFFFF" d="M135.513,154.164c0.178,4.006,2.136,5.831,5.653,5.831c2.537,0,4.584-1.558,4.985-2.982h5.564
	c-1.781,5.43-5.564,7.745-10.771,7.745c-7.255,0-11.75-4.985-11.75-12.106c0-6.899,4.762-12.151,11.75-12.151
	c7.833,0,11.617,6.587,11.172,13.665H135.513z M145.795,150.158c-0.579-3.205-1.958-4.896-5.03-4.896
	c-4.006,0-5.163,3.116-5.252,4.896H145.795z"/>
<path fill="#FFFFFF" d="M154.962,141.123h6.009v2.938h0.089c1.513-2.448,4.006-3.561,6.854-3.561c7.21,0,10.46,5.831,10.46,12.374
	c0,6.143-3.383,11.884-10.104,11.884c-2.76,0-5.386-1.202-6.899-3.472h-0.089v10.949h-6.321V141.123z M172.054,152.695
	c0-3.65-1.469-7.433-5.519-7.433c-4.139,0-5.475,3.694-5.475,7.433s1.424,7.299,5.519,7.299
	C170.719,159.995,172.054,156.434,172.054,152.695z"/>
<path fill="#FFFFFF" d="M186.473,154.164c0.178,4.006,2.136,5.831,5.653,5.831c2.537,0,4.584-1.558,4.985-2.982h5.564
	c-1.781,5.43-5.564,7.745-10.771,7.745c-7.255,0-11.75-4.985-11.75-12.106c0-6.899,4.762-12.151,11.75-12.151
	c7.833,0,11.617,6.587,11.172,13.665H186.473z M196.755,150.158c-0.579-3.205-1.958-4.896-5.03-4.896
	c-4.006,0-5.163,3.116-5.252,4.896H196.755z"/>
<path fill="#FFFFFF" d="M205.922,141.123h6.009v3.205h0.133c1.603-2.582,4.362-3.828,7.033-3.828c6.721,0,8.412,3.783,8.412,9.48
	v14.154h-6.32v-12.997c0-3.783-1.113-5.652-4.05-5.652c-3.427,0-4.896,1.914-4.896,6.587v12.062h-6.321V141.123z"/>
<path fill="#FFFFFF" d="M247.848,161.197h-0.089c-1.469,2.492-4.05,3.561-6.988,3.561c-6.943,0-10.326-5.964-10.326-12.329
	c0-6.187,3.427-11.929,10.193-11.929c2.715,0,5.386,1.157,6.854,3.427h-0.044h0.089v-11.573h6.32v31.78h-6.009V161.197z
	 M242.329,145.262c-4.14,0-5.564,3.561-5.564,7.344c0,3.605,1.647,7.388,5.564,7.388c4.184,0,5.43-3.649,5.43-7.433
	C247.759,148.823,246.424,145.262,242.329,145.262z"/>
<path fill="#FFFFFF" d="M262.935,154.164c0.178,4.006,2.136,5.831,5.653,5.831c2.537,0,4.584-1.558,4.985-2.982h5.564
	c-1.781,5.43-5.564,7.745-10.771,7.745c-7.255,0-11.75-4.985-11.75-12.106c0-6.899,4.762-12.151,11.75-12.151
	c7.833,0,11.617,6.587,11.172,13.665H262.935z M273.217,150.158c-0.579-3.205-1.958-4.896-5.03-4.896
	c-4.006,0-5.163,3.116-5.252,4.896H273.217z"/>
<path fill="#FFFFFF" d="M282.384,141.123h6.009v3.205h0.133c1.603-2.582,4.362-3.828,7.033-3.828c6.721,0,8.412,3.783,8.412,9.48
	v14.154h-6.32v-12.997c0-3.783-1.113-5.652-4.05-5.652c-3.427,0-4.896,1.914-4.896,6.587v12.062h-6.321V141.123z"/>
<path fill="#FFFFFF" d="M315.898,141.123h4.629v4.229h-4.629v11.395c0,2.137,0.534,2.67,2.67,2.67c0.667,0,1.291-0.044,1.958-0.178
	v4.94c-1.068,0.178-2.448,0.223-3.694,0.223c-3.873,0-7.255-0.89-7.255-5.475v-13.576h-3.828v-4.229h3.828v-6.899h6.321V141.123z"/>
<path fill="#FFFFFF" d="M322.84,132.354h6.32v31.78h-6.32V132.354z"/>
<path fill="#FFFFFF" d="M344.604,167.027c-1.38,3.695-3.561,5.208-7.923,5.208c-1.291,0-2.582-0.089-3.872-0.223v-5.208
	c1.202,0.089,2.448,0.267,3.694,0.223c2.181-0.223,2.893-2.493,2.181-4.317l-8.101-21.587h6.766l5.208,15.757h0.089l5.03-15.757
	h6.543L344.604,167.027z"/>
<path fill="#FFFFFF" d="M378.119,140.5c7.255,0,11.929,4.807,11.929,12.151c0,7.299-4.674,12.106-11.929,12.106
	c-7.211,0-11.884-4.807-11.884-12.106C366.234,145.307,370.908,140.5,378.119,140.5z M378.119,159.995
	c4.317,0,5.608-3.694,5.608-7.344c0-3.694-1.291-7.389-5.608-7.389c-4.273,0-5.564,3.694-5.564,7.389
	C372.555,156.3,373.846,159.995,378.119,159.995z"/>
<path fill="#FFFFFF" d="M392.359,141.123h6.009v4.273h0.089c1.157-2.893,4.273-4.896,7.344-4.896c0.445,0,0.979,0.089,1.379,0.223
	v5.875c-0.579-0.133-1.513-0.222-2.27-0.222c-4.629,0-6.231,3.338-6.231,7.389v10.371h-6.321V141.123z"/>
<path fill="#FFFFFF" d="M430.904,162.666c0,3.783-1.335,10.192-11.929,10.192c-4.54,0-9.836-2.136-10.148-7.388h6.276
	c0.579,2.359,2.492,3.161,4.718,3.161c3.517,0,5.119-2.404,5.074-5.698v-3.027h-0.089c-1.38,2.404-4.14,3.561-6.899,3.561
	c-6.899,0-9.836-5.252-9.836-11.573c0-5.964,3.427-11.395,9.881-11.395c3.026,0,5.341,1.024,6.854,3.694h0.089v-3.071h6.009V162.666
	z M424.895,152.339c0-3.739-1.291-7.077-5.386-7.077c-3.561,0-5.119,3.116-5.119,6.543c0,3.293,1.246,6.899,5.119,6.899
	C423.115,158.704,424.895,155.633,424.895,152.339z"/>
<path fill="#FFFFFF" d="M433.929,148.2c0.356-5.92,5.652-7.7,10.815-7.7c4.585,0,10.104,1.024,10.104,6.543v11.973
	c0,2.092,0.223,4.184,0.801,5.119h-6.41c-0.223-0.712-0.4-1.469-0.445-2.226c-2.003,2.092-4.941,2.849-7.745,2.849
	c-4.362,0-7.833-2.181-7.833-6.899c0-5.208,3.917-6.454,7.833-6.988c3.873-0.579,7.478-0.445,7.478-3.026
	c0-2.715-1.87-3.116-4.095-3.116c-2.403,0-3.961,0.979-4.184,3.472H433.929z M448.528,152.873c-1.068,0.935-3.294,0.979-5.252,1.335
	c-1.958,0.401-3.739,1.068-3.739,3.383c0,2.359,1.825,2.938,3.873,2.938c4.94,0,5.119-3.917,5.119-5.296V152.873z"/>
<path fill="#FFFFFF" d="M458.852,141.123h6.009v3.205h0.133c1.603-2.582,4.362-3.828,7.033-3.828c6.721,0,8.412,3.783,8.412,9.48
	v14.154h-6.32v-12.997c0-3.783-1.113-5.652-4.05-5.652c-3.427,0-4.896,1.914-4.896,6.587v12.062h-6.321V141.123z"/>
<path fill="#FFFFFF" d="M489.962,137.562h-6.32v-5.208h6.32V137.562z M483.642,141.123h6.32v23.012h-6.32V141.123z"/>
<path fill="#FFFFFF" d="M492.632,159.372l11.973-13.486h-11.083v-4.763h19.406v4.763l-11.973,13.486h12.818v4.763h-21.142V159.372z"
	/>
<path fill="#FFFFFF" d="M521.474,154.164c0.178,4.006,2.137,5.831,5.652,5.831c2.537,0,4.585-1.558,4.985-2.982h5.563
	c-1.78,5.43-5.563,7.745-10.771,7.745c-7.255,0-11.75-4.985-11.75-12.106c0-6.899,4.763-12.151,11.75-12.151
	c7.834,0,11.617,6.587,11.173,13.665H521.474z M531.755,150.158c-0.578-3.205-1.958-4.896-5.029-4.896
	c-4.006,0-5.163,3.116-5.252,4.896H531.755z"/>
<path fill="#FFFFFF" d="M557.348,161.197h-0.09c-1.469,2.492-4.05,3.561-6.987,3.561c-6.944,0-10.327-5.964-10.327-12.329
	c0-6.187,3.428-11.929,10.193-11.929c2.715,0,5.386,1.157,6.854,3.427h-0.045h0.089v-11.573h6.321v31.78h-6.009V161.197z
	 M551.828,145.262c-4.14,0-5.563,3.561-5.563,7.344c0,3.605,1.646,7.388,5.563,7.388c4.184,0,5.43-3.649,5.43-7.433
	C557.258,148.823,555.923,145.262,551.828,145.262z"/>
<path fill="#FFFFFF" d="M586.409,138.229h-9.524v-5.875h26.038v5.875h-9.525v25.905h-6.988V138.229z"/>
<path fill="#FFFFFF" d="M605.68,132.354h23.769v5.875h-16.78v6.81h15.4v5.43h-15.4v7.789h17.136v5.875H605.68V132.354z"/>
<path fill="#FFFFFF" d="M632.74,132.354h13.709c8.234,0,14.421,5.164,14.421,15.712c0,9.213-4.718,16.068-14.421,16.068H632.74
	V132.354z M639.729,158.259h6.231c4.05,0,7.923-2.492,7.923-9.525c0-6.41-2.226-10.504-9.17-10.504h-4.984V158.259z"/>
<path fill="#FFFFFF" d="M680.853,154.164c0.178,4.006,2.137,5.831,5.652,5.831c2.537,0,4.585-1.558,4.985-2.982h5.563
	c-1.78,5.43-5.563,7.745-10.771,7.745c-7.255,0-11.75-4.985-11.75-12.106c0-6.899,4.763-12.151,11.75-12.151
	c7.834,0,11.617,6.587,11.173,13.665H680.853z M691.134,150.158c-0.578-3.205-1.958-4.896-5.029-4.896
	c-4.006,0-5.163,3.116-5.252,4.896H691.134z"/>
<path fill="#FFFFFF" d="M712.142,164.134h-7.033l-7.878-23.012h6.632l4.852,15.712h0.089l4.852-15.712h6.276L712.142,164.134z"/>
<path fill="#FFFFFF" d="M725.982,154.164c0.178,4.006,2.137,5.831,5.652,5.831c2.537,0,4.585-1.558,4.985-2.982h5.563
	c-1.78,5.43-5.563,7.745-10.771,7.745c-7.255,0-11.75-4.985-11.75-12.106c0-6.899,4.763-12.151,11.75-12.151
	c7.834,0,11.617,6.587,11.172,13.665H725.982z M736.264,150.158c-0.578-3.205-1.958-4.896-5.029-4.896
	c-4.006,0-5.163,3.116-5.252,4.896H736.264z"/>
<path fill="#FFFFFF" d="M745.432,141.123h6.009v3.205h0.134c1.603-2.582,4.362-3.828,7.032-3.828c6.722,0,8.413,3.783,8.413,9.48
	v14.154h-6.32v-12.997c0-3.783-1.113-5.652-4.051-5.652c-3.428,0-4.896,1.914-4.896,6.587v12.062h-6.32V141.123z"/>
<path fill="#FFFFFF" d="M778.945,141.123h4.629v4.229h-4.629v11.395c0,2.137,0.534,2.67,2.671,2.67c0.668,0,1.291-0.044,1.958-0.178
	v4.94c-1.067,0.178-2.447,0.223-3.694,0.223c-3.872,0-7.255-0.89-7.255-5.475v-13.576h-3.828v-4.229h3.828v-6.899h6.32V141.123z"/>
<g>
	<g>
		<path fill="#FF2B06" d="M30.657,27.212H1.002V0.091h91.879v27.121H63.238v78.695H30.657V27.212z"/>
		<path fill="#FF2B06" d="M97.946,0.091h89.192v27.121h-56.59v13.186h56.59v25.203h-56.59v13.187h56.605v27.12H97.946V0.091z"/>
		<path fill="#FF2B06" d="M192.625,0.091h53.5c35.266,0,47.729,26.084,47.729,52.753c0,32.466-17.191,53.063-54.096,53.063h-47.134
			V0.091z M225.225,78.788h12.75c20.309,0,23.278-16.456,23.278-26.396c0-6.656-2.086-25.179-25.652-25.179h-10.376V78.788z"/>
	</g>
	<g>
		<g>
			<path fill="#FF2B06" d="M340.7,65.131l-9.945-16.492l-9.698,16.492H297.17l22.677-33.346L298.011-0.112h23.895l8.849,15.767
				l9.103-15.767h23.888l-21.829,31.896l22.677,33.346H340.7z"/>
		</g>
	</g>
</g>
<text transform="matrix(1 0 0 1 378.5601 105.7349)" fill="#FFFFFF" font-family="'Helvetica'" font-size="146.9047">Brisbane</text>
</svg>
